<svg width="4" height="7" viewBox="0 0 4 7" fill="none" xmlns="http://www.w3.org/2000/svg">
<path d="M3.18908 0.204707C3.25573 0.142607 3.34387 0.108799 3.43495 0.110406C3.52603 0.112013 3.61293 0.14891 3.67734 0.213322C3.74175 0.277735 3.77865 0.364634 3.78026 0.455713C3.78186 0.546791 3.74806 0.634938 3.68596 0.701582L0.887518 3.50002L3.68596 6.29846C3.7205 6.33064 3.7482 6.36946 3.76742 6.41258C3.78663 6.4557 3.79696 6.50226 3.7978 6.54946C3.79863 6.59667 3.78995 6.64356 3.77226 6.68733C3.75458 6.73111 3.72826 6.77087 3.69488 6.80426C3.6615 6.83764 3.62173 6.86396 3.57796 6.88164C3.53418 6.89932 3.48729 6.908 3.44009 6.90717C3.39288 6.90634 3.34633 6.89601 3.3032 6.87679C3.26008 6.85758 3.22127 6.82987 3.18908 6.79533L0.142206 3.74846C0.0763694 3.68254 0.0393905 3.59318 0.0393905 3.50002C0.0393905 3.40686 0.0763694 3.3175 0.142206 3.25158L3.18908 0.204707Z" fill="#386641"/>
</svg>
