<svg width="4" height="7" viewBox="0 0 4 7" fill="none" xmlns="http://www.w3.org/2000/svg">
<path d="M0.810918 0.204707C0.744274 0.142607 0.656127 0.108799 0.565048 0.110406C0.47397 0.112013 0.38707 0.14891 0.322658 0.213322C0.258246 0.277735 0.221349 0.364634 0.219742 0.455713C0.218135 0.546791 0.251943 0.634938 0.314043 0.701582L3.11248 3.50002L0.314043 6.29846C0.279503 6.33064 0.251798 6.36946 0.232583 6.41258C0.213368 6.4557 0.203036 6.50226 0.202203 6.54946C0.20137 6.59667 0.210054 6.64356 0.227736 6.68733C0.245417 6.73111 0.271735 6.77087 0.305119 6.80426C0.338503 6.83764 0.378268 6.86396 0.422044 6.88164C0.46582 6.89932 0.512708 6.908 0.559913 6.90717C0.607117 6.90634 0.653671 6.89601 0.696795 6.87679C0.73992 6.85758 0.778733 6.82987 0.810918 6.79533L3.85779 3.74846C3.92363 3.68254 3.96061 3.59318 3.96061 3.50002C3.96061 3.40686 3.92363 3.3175 3.85779 3.25158L0.810918 0.204707Z" fill="#386641"/>
</svg>
