<svg width="61" height="11" viewBox="0 0 61 11" fill="none" xmlns="http://www.w3.org/2000/svg">
<path d="M18.256 0.310792L19.4218 2.84529C19.4725 2.99736 19.6246 3.09874 19.7767 3.14943L22.4125 3.55494C22.8688 3.55494 23.0208 4.06184 22.7167 4.36598L20.7905 6.34289C20.6891 6.44427 20.6384 6.64703 20.6384 6.7991L21.0946 9.53635C21.1453 9.94187 20.7398 10.2967 20.385 10.0939L18.0025 8.776C17.8505 8.67462 17.6984 8.67462 17.5463 8.776L15.1639 10.0939C14.8091 10.2967 14.3529 9.99256 14.4542 9.53635L14.9104 6.7991C14.9611 6.64703 14.8598 6.44427 14.7584 6.34289L12.8322 4.36598C12.5787 4.06184 12.7308 3.55494 13.1363 3.50425L15.7722 3.09874C15.9242 3.09874 16.0763 2.94667 16.127 2.7946L17.2929 0.260103C17.5463 -0.0947265 18.0532 -0.0947265 18.256 0.310792Z" fill="#6A994E"/>
<path d="M30.9645 0.310792L32.1303 2.84529C32.181 2.99736 32.3331 3.09874 32.4852 3.14943L35.121 3.55494C35.5773 3.55494 35.7293 4.06184 35.4252 4.36598L33.499 6.34289C33.3976 6.44427 33.3469 6.64703 33.3469 6.7991L33.8031 9.53635C33.8538 9.94187 33.4483 10.2967 33.0934 10.0939L30.711 8.776C30.559 8.67462 30.4069 8.67462 30.2548 8.776L27.8724 10.0939C27.5176 10.2967 27.0614 9.99256 27.1627 9.53635L27.6189 6.7991C27.6696 6.64703 27.5683 6.44427 27.4669 6.34289L25.5407 4.36598C25.2872 4.06184 25.4393 3.55494 25.8448 3.50425L28.4807 3.09874C28.6327 3.09874 28.7848 2.94667 28.8355 2.7946L30.0014 0.260103C30.2548 -0.0947265 30.7617 -0.0947265 30.9645 0.310792Z" fill="#6A994E"/>
<path d="M5.54773 0.310792L6.71359 2.84529C6.76428 2.99736 6.91635 3.09874 7.06842 3.14943L9.7043 3.55494C10.1605 3.55494 10.3126 4.06184 10.0084 4.36598L8.08222 6.34289C7.98084 6.44427 7.93015 6.64703 7.93015 6.7991L8.38636 9.53635C8.43705 9.94187 8.03153 10.2967 7.6767 10.0939L5.29428 8.776C5.14221 8.67462 4.99014 8.67462 4.83807 8.776L2.45564 10.0939C2.10081 10.2967 1.64461 9.99256 1.74598 9.53635L2.20219 6.7991C2.25288 6.64703 2.1515 6.44427 2.05012 6.34289L0.123909 4.36598C-0.129541 4.06184 0.0225288 3.55494 0.428048 3.50425L3.06392 3.09874C3.21599 3.09874 3.36806 2.94667 3.41875 2.7946L4.58462 0.260103C4.83807 -0.0947265 5.34497 -0.0947265 5.54773 0.310792Z" fill="#6A994E"/>
<path d="M43.6727 0.310792L44.8386 2.84529C44.8893 2.99736 45.0414 3.09874 45.1934 3.14943L47.8293 3.55494C48.2855 3.55494 48.4376 4.06184 48.1334 4.36598L46.2072 6.34289C46.1058 6.44427 46.0552 6.64703 46.0552 6.7991L46.5114 9.53635C46.562 9.94187 46.1565 10.2967 45.8017 10.0939L43.4193 8.776C43.2672 8.67462 43.1151 8.67462 42.9631 8.776L40.5806 10.0939C40.2258 10.2967 39.7696 9.99256 39.871 9.53635L40.3272 6.7991C40.3779 6.64703 40.2765 6.44427 40.1751 6.34289L38.2489 4.36598C37.9955 4.06184 38.1475 3.55494 38.553 3.50425L41.1889 3.09874C41.341 3.09874 41.4931 2.94667 41.5438 2.7946L42.7096 0.260103C42.9631 -0.0947265 43.47 -0.0947265 43.6727 0.310792Z" fill="#6A994E"/>
<path d="M56.381 0.310792L57.5468 2.84529C57.5975 2.99736 57.7496 3.09874 57.9017 3.14943L60.5375 3.55494C60.9938 3.55494 61.1458 4.06184 60.8417 4.36598L58.9155 6.34289C58.8141 6.44427 58.7634 6.64703 58.7634 6.7991L59.2196 9.53635C59.2703 9.94187 58.8648 10.2967 58.51 10.0939L56.1275 8.776C55.9755 8.67462 55.8234 8.67462 55.6713 8.776L53.2889 10.0939C52.9341 10.2967 52.4779 9.99256 52.5792 9.53635L53.0354 6.7991C53.0861 6.64703 52.9848 6.44427 52.8834 6.34289L50.9572 4.36598C50.7037 4.06184 50.8558 3.55494 51.2613 3.50425L53.8972 3.09874C54.0492 3.09874 54.2013 2.94667 54.252 2.7946L55.4179 0.260103C55.6713 -0.0947265 56.1782 -0.0947265 56.381 0.310792Z" fill="#6A994E" fill-opacity="0.2"/>
</svg>
