<svg width="7" height="8" viewBox="0 0 7 8" fill="none" xmlns="http://www.w3.org/2000/svg">
<path d="M4.11906 4.05645L6.84206 1.31149C6.86642 1.28694 6.88574 1.25778 6.89892 1.2257C6.91211 1.19361 6.91889 1.15922 6.91889 1.1245C6.91889 1.08977 6.91211 1.05538 6.89892 1.02329C6.88574 0.991209 6.86642 0.962056 6.84206 0.9375C6.8177 0.912943 6.78878 0.893464 6.75695 0.880174C6.72512 0.866884 6.69101 0.860043 6.65655 0.860043C6.6221 0.860043 6.58799 0.866884 6.55616 0.880174C6.52433 0.893464 6.49542 0.912943 6.47106 0.9375L3.74806 3.65423L1.02506 0.909274C1.0007 0.884717 0.971775 0.865238 0.939947 0.851948C0.908119 0.838658 0.874006 0.831818 0.839555 0.831818C0.805105 0.831818 0.770992 0.838658 0.739164 0.851948C0.707335 0.865238 0.678415 0.884717 0.654055 0.909274C0.629695 0.93383 0.610372 0.962983 0.597188 0.995068C0.584004 1.02715 0.577219 1.06154 0.577219 1.09627C0.577219 1.131 0.584004 1.16539 0.597188 1.19747C0.610372 1.22956 0.629695 1.25871 0.654055 1.28327L3.37705 4.05645L0.654055 6.77319C0.62929 6.79751 0.609608 6.82659 0.596169 6.85871C0.582729 6.89082 0.575806 6.92533 0.575806 6.96018C0.575806 6.99504 0.582729 7.02954 0.596169 7.06166C0.609608 7.09377 0.62929 7.12285 0.654055 7.14718C0.677106 7.1725 0.705285 7.19254 0.736686 7.20593C0.768086 7.21932 0.801974 7.22576 0.836055 7.2248C0.871186 7.22586 0.90615 7.21951 0.938699 7.20614C0.971248 7.19277 1.00066 7.17269 1.02506 7.14718L3.74806 4.40222L6.47106 7.14718C6.49411 7.1725 6.52229 7.19254 6.55369 7.20593C6.58509 7.21932 6.61897 7.22576 6.65306 7.2248C6.68824 7.22631 6.72334 7.22017 6.75595 7.20677C6.78857 7.19338 6.81794 7.17305 6.84206 7.14718C6.86682 7.12285 6.8865 7.09377 6.89994 7.06166C6.91338 7.02954 6.9203 6.99504 6.9203 6.96018C6.9203 6.92533 6.91338 6.89082 6.89994 6.85871C6.8865 6.82659 6.86682 6.79751 6.84206 6.77319L4.11906 4.05645Z" fill="#A7C957"/>
</svg>
