<svg width="20" height="20" viewBox="0 0 20 20" fill="none" xmlns="http://www.w3.org/2000/svg">
<path d="M8 0C10.2091 0 12 1.79086 12 4V6H13.75C14.9926 6 16 7.00736 16 8.25L16.0004 9C15.6815 9 15.3626 9.1096 15.1038 9.3286L14.9966 9.4293C14.8328 9.5998 14.6678 9.7519 14.5009 9.886L14.5 8.25C14.5 7.83579 14.1642 7.5 13.75 7.5H2.25C1.83579 7.5 1.5 7.83579 1.5 8.25V17.75C1.5 18.1642 1.83579 18.5 2.25 18.5L12.1384 18.5008C12.546 19.0774 13.0606 19.579 13.6783 20.0005L2.25 20C1.00736 20 0 18.9926 0 17.75V8.25C0 7.00736 1.00736 6 2.25 6H4V4C4 1.79086 5.79086 0 8 0ZM16.2837 10.1223C17.2758 11.1576 18.3751 11.6667 19.6 11.6667C19.7933 11.6667 19.9546 11.8095 19.9919 11.9994L20 12.0833V14.5844C20 17.2663 18.687 19.0896 16.1265 19.9786C16.0444 20.0071 15.9556 20.0071 15.8735 19.9786C13.3984 19.1192 12.0889 17.3868 12.0044 14.8497L12 14.5844V12.0833C12 11.8532 12.1791 11.6667 12.4 11.6667C13.6234 11.6667 14.7233 11.1575 15.7178 10.122C15.8741 9.9592 16.1276 9.9594 16.2837 10.1223ZM8.0001 11.5C8.8286 11.5 9.5001 12.1716 9.5001 13C9.5001 13.8284 8.8286 14.5 8.0001 14.5C7.1717 14.5 6.50012 13.8284 6.50012 13C6.50012 12.1716 7.1717 11.5 8.0001 11.5ZM8 1.5C6.61929 1.5 5.5 2.61929 5.5 4V6H10.5V4C10.5 2.61929 9.3807 1.5 8 1.5Z" fill="#6A994E"/>
</svg>
